<?xml version="1.0" encoding="UTF-8" standalone="no"?>
<!--Created with Inkscape (http://www.inkscape.org/)-->
<svg width="456mm" height="456mm" viewBox="0 0 456 456" version="1.1" id="svg1" xml:space="preserve" xmlns="http://www.w3.org/2000/svg" xmlns:svg="http://www.w3.org/2000/svg">
  <defs id="defs1"/>
  <g id="layer1">
    <g id="g5" transform="matrix(0.66859573,0,0,0.66859573,75.560172,75.560173)">
      <g style="fill:none" id="g3" transform="matrix(0.03962484,0,0,0.03962484,72.505965,131.1111)">
        <g id="g4" transform="matrix(2.036039,0,0,2.036039,1376.3179,5592.0945)">
          <g style="fill:none" id="g2" transform="matrix(157.50138,0,0,157.50138,-638.64686,-3435.6348)">
            <path d="M 6,2 C 4.89543,2 4,2.89543 4,4 v 16 c 0,1.1046 0.89543,2 2,2 h 12 c 1.1046,0 2,-0.8954 2,-2 V 9.82777 C 20,9.29733 19.7893,8.78863 19.4142,8.41355 L 13.5864,2.58579 C 13.2114,2.21071 12.7027,2 12.1722,2 Z M 5.5,4 C 5.5,3.72386 5.72386,3.5 6,3.5 h 6 V 8 c 0,1.10457 0.8954,2 2,2 h 4.5 v 10 c 0,0.2761 -0.2239,0.5 -0.5,0.5 H 6 C 5.72386,20.5 5.5,20.2761 5.5,20 Z M 17.3793,8.5 H 14 C 13.7239,8.5 13.5,8.27614 13.5,8 V 4.62066 Z" fill="#FFFFFF" id="path1-8"/>
          </g>
          <path d="m 1419.2474,-757.74943 c 79.8788,0 110.9855,35.55661 134.6146,114.40989 l 4.1447,14.47901 c 11.1401,40.12251 17.7997,52.14156 31.2898,57.70244 15.8159,6.51922 26.3638,5.59139 42.9366,-2.92999 l 8.973,-5.02371 c 3.223,-1.94111 6.739,-4.17523 10.7189,-6.80001 l 40.4827,-27.55409 c 37.5954,-24.72786 71.3757,-41.07475 112.5054,-51.35412 24.5325,-6.13466 49.3886,8.78386 55.5171,33.31029 6.1347,24.52643 -8.7777,49.38249 -33.3103,55.51715 -24.8438,6.21401 -46.2816,15.61439 -69.9107,29.87366 l -18.2269,11.64669 -29.2389,20.02158 c -14.0273,9.54077 -24.6119,16.12103 -35.642,21.79178 -39.2436,20.17418 -77.5165,23.53756 -119.6961,6.15297 -45.4636,-18.7336 -63.7944,-47.60618 -80.9592,-105.08886 l -9.5103,-33.07223 c -11.0668,-35.9778 -18.6115,-41.52036 -44.6884,-41.52036 -18.8801,0 -38.4316,9.44921 -65.2105,31.92465 l -11.2804,9.82156 -56.2131,53.42953 c -85.9524,80.7944 -159.2307,120.0257 -264.1462,120.0257 -102.93352,0 -191.95629,-15.50451 -266.68682,-46.92862 l 179.925,-49.0956 c 27.30198,2.97272 56.2179,4.46213 86.76182,4.46213 72.1967,0 124.0196,-25.32608 188.3878,-83.17501 l 15.7608,-14.57058 32.4619,-31.19826 c 14.4485,-13.84418 25.2711,-23.76341 36.167,-32.91352 41.7279,-35.01334 79.659,-53.34407 124.0727,-53.34407 z m 261.2816,-825.91017 c 85.2993,85.3029 85.2993,223.6068 0,308.9097 l -17.5921,17.6233 c 70.283,85.5403 67.7437,176.1935 2.3745,241.7581 l -122.156,122.15601 c -17.8974,17.86071 -46.8798,17.83629 -64.7467,-0.0549 -17.8607,-17.89734 -17.8362,-46.8859 0.061,-64.74661 l 122.0034,-122.0096 c 29.6051,-29.6905 33.0295,-66.5534 -2.4294,-112.213 l -525.998,525.96995 c -16.9005,16.89626 -37.9195,29.09843 -60.9785,35.38569 L 698.79833,-545.716 c -34.17586,9.32102 -65.53465,-22.04205 -56.21363,-56.21302 l 85.16373,-312.26947 c 6.2891,-23.06143 18.487,-44.07799 35.38753,-60.98035 l 608.48074,-608.48076 c 85.3054,-85.303 223.6069,-85.303 308.9122,0 z" fill="#FFFFFF" id="path1-0" style="stroke-width:61.0414"/>
        </g>
      </g>
    </g>
  </g>
</svg>
