<?xml version="1.0" encoding="UTF-8" standalone="no"?>
<!-- Created with Inkscape (http://www.inkscape.org/) -->

<svg
   width="200mm"
   height="80mm"
   viewBox="0 0 200 80"
   version="1.1"
   id="svg1"
   xml:space="preserve"
   xmlns="http://www.w3.org/2000/svg"
   xmlns:svg="http://www.w3.org/2000/svg"><defs
     id="defs1" /><g
     id="layer1"><g
       id="g2"
       transform="matrix(0.41022783,0,0,0.41022783,-110.03683,-117.52621)"><g
         style="font-style:normal;font-weight:400;font-size:32px;line-height:1;font-family:Karla;font-variant-ligatures:none;text-align:center;text-anchor:middle"
         transform="translate(229.04)"
         id="g1" /><g
         style="font-style:normal;font-weight:400;font-size:72px;line-height:1;font-family:'Brandmark Stencil 1';font-variant-ligatures:normal;text-align:center;text-anchor:middle"
         stroke-width="2"
         stroke-miterlimit="2"
         fill="#ffffff"
         stroke="#ffffff"
         id="g12"><path
           style="font-style:normal;font-weight:400;font-size:72px;line-height:1;font-family:'Brandmark Stencil 1';font-variant-ligatures:normal;text-align:center;text-anchor:middle"
           d="m 210.245,-49.608 c -0.648,0 -1.152,0.504 -1.152,1.224 v 43.56 l -32.976,-44.28 c -0.288,-0.432 -0.864,-0.648 -1.296,-0.432 a 1.167,1.167 0 0 0 -0.864,1.152 v 47.232 c 0,0.648 0.576,1.152 1.224,1.152 0.648,0 1.224,-0.504 1.224,-1.152 v -43.56 l 32.905,44.28 C 209.526,-0.144 209.886,0 210.246,0 h 0.432 c 0.504,-0.216 0.792,-0.648 0.792,-1.152 v -47.232 c 0,-0.72 -0.504,-1.224 -1.224,-1.224 z"
           transform="matrix(0.98,0,0,0.98,108.562,381.49)"
           id="path1" /><path
           style="font-style:normal;font-weight:400;font-size:72px;line-height:1;font-family:'Brandmark Stencil 1';font-variant-ligatures:normal;text-align:center;text-anchor:middle"
           d="m 256.03,-49.608 c -13.68,0 -24.84,11.16 -24.84,24.84 0,13.68 11.16,24.768 24.84,24.768 13.68,0 24.84,-11.088 24.84,-24.768 0,-13.752 -11.16,-24.84 -24.84,-24.84 z m -22.393,24.84 c 0,-12.384 10.008,-22.392 22.392,-22.392 12.312,0 22.392,10.008 22.392,22.392 0,12.312 -10.08,22.392 -22.392,22.392 -12.384,0 -22.392,-10.08 -22.392,-22.392 z"
           transform="matrix(0.98,0,0,0.98,112.482,381.49)"
           id="path2" /><path
           style="font-style:normal;font-weight:400;font-size:72px;line-height:1;font-family:'Brandmark Stencil 1';font-variant-ligatures:normal;text-align:center;text-anchor:middle"
           d="m 336.105,-49.536 c -0.648,-0.216 -1.368,0.072 -1.584,0.648 l -19.008,44.64 -19.08,-44.64 c -0.216,-0.576 -0.936,-0.864 -1.584,-0.648 -0.576,0.288 -0.864,1.008 -0.648,1.584 L 314.36,-0.72 c 0.072,0.144 0.144,0.216 0.144,0.288 0.072,0 0.072,0 0.072,0.072 l 0.216,0.216 h 0.072 c 0.072,0 0.072,0.072 0.144,0.072 h 0.072 L 315.152,0 h 0.648 c 0,0 0.072,0 0.072,-0.072 h 0.072 c 0.072,0 0.144,-0.072 0.144,-0.072 h 0.072 l 0.216,-0.216 c 0,-0.072 0.072,-0.072 0.072,-0.072 0.072,-0.072 0.072,-0.144 0.144,-0.288 l 20.16,-47.232 c 0.216,-0.576 -0.072,-1.296 -0.648,-1.584 z"
           transform="matrix(0.98,0,0,0.98,116.402,381.49)"
           id="path3" /><path
           style="font-style:normal;font-weight:400;font-size:72px;line-height:1;font-family:'Brandmark Stencil 1';font-variant-ligatures:normal;text-align:center;text-anchor:middle"
           d="m 389.7,-1.656 -20.016,-47.736 c -0.072,-0.216 -0.144,-0.288 -0.216,-0.432 0,-0.072 -0.072,-0.072 -0.072,-0.072 -0.36,-0.504 -1.008,-0.648 -1.512,-0.36 -0.288,0.144 -0.432,0.36 -0.576,0.576 -0.216,0.576 -20.16,48.024 -20.16,48.024 a 1.286,1.286 0 0 0 0.648,1.584 c 0.648,0.288 1.368,0 1.584,-0.648 l 19.08,-45.36 19.008,45.36 c 0.216,0.504 0.648,0.72 1.152,0.72 0.144,0 0.288,0 0.432,-0.072 0.648,-0.288 0.936,-0.936 0.648,-1.584 z m -30.816,-12.96 c 0,0.72 0.576,1.224 1.224,1.224 h 16.632 c 0.72,0 1.224,-0.504 1.224,-1.224 0,-0.648 -0.504,-1.152 -1.224,-1.152 h -16.632 c -0.648,0 -1.224,0.504 -1.224,1.152 z"
           transform="matrix(0.98,0,0,0.98,120.322,381.49)"
           id="path4" /><path
           style="font-style:normal;font-weight:400;font-size:72px;line-height:1;font-family:'Brandmark Stencil 1';font-variant-ligatures:normal;text-align:center;text-anchor:middle"
           d="m 406.98,-47.16 h 27.648 c 0.648,0 1.224,-0.576 1.224,-1.224 0,-0.72 -0.576,-1.224 -1.224,-1.224 H 406.98 c -0.648,0 -1.224,0.504 -1.224,1.224 0,0.648 0.576,1.224 1.224,1.224 z m -1.224,46.008 c 0,0.648 0.576,1.152 1.224,1.152 h 27.648 c 0.648,0 1.224,-0.504 1.224,-1.152 0,-0.72 -0.576,-1.224 -1.224,-1.224 H 406.98 c -0.648,0 -1.224,0.504 -1.224,1.224 z m 0,-6.264 c 0,0.72 0.576,1.224 1.224,1.224 0.648,0 1.224,-0.504 1.224,-1.224 v -16.92 h 25.92 c 0.648,0 1.224,-0.576 1.224,-1.224 0,-0.648 -0.576,-1.224 -1.224,-1.224 h -25.92 v -15.408 c 0,-0.648 -0.576,-1.224 -1.224,-1.224 -0.648,0 -1.224,0.576 -1.224,1.224 z"
           transform="matrix(0.98,0,0,0.98,-118.6,435.866)"
           id="path5" /><path
           style="font-style:normal;font-weight:400;font-size:72px;line-height:1;font-family:'Brandmark Stencil 1';font-variant-ligatures:normal;text-align:center;text-anchor:middle"
           d="m 454.744,-49.608 c -0.648,0 -1.224,0.504 -1.224,1.224 v 47.232 c 0,0.648 0.576,1.152 1.224,1.152 0.648,0 1.224,-0.504 1.224,-1.152 v -47.232 c 0,-0.72 -0.576,-1.224 -1.224,-1.224 z m 4.968,26.856 c 0,0.648 0.576,1.152 1.224,1.152 h 10.008 c 7.704,0.072 14.04,-6.264 14.04,-13.968 0,-7.776 -6.336,-14.04 -14.04,-14.04 h -10.008 c -0.648,0 -1.224,0.504 -1.224,1.224 0,0.648 0.576,1.224 1.224,1.224 h 10.008 c 6.408,-0.072 11.592,5.184 11.592,11.592 0,6.336 -5.184,11.592 -11.592,11.592 h -10.008 c -0.648,0 -1.224,0.504 -1.224,1.224 z"
           transform="matrix(0.98,0,0,0.98,-114.68,435.866)"
           id="path6" /><path
           style="font-style:normal;font-weight:400;font-size:72px;line-height:1;font-family:'Brandmark Stencil 1';font-variant-ligatures:normal;text-align:center;text-anchor:middle"
           d="m 524.482,-49.608 c -13.68,0 -24.84,11.16 -24.84,24.84 0,13.68 11.16,24.768 24.84,24.768 13.68,0 24.84,-11.088 24.84,-24.768 0,-13.752 -11.16,-24.84 -24.84,-24.84 z m -22.392,24.84 c 0,-12.384 10.008,-22.392 22.392,-22.392 12.312,0 22.392,10.008 22.392,22.392 0,12.312 -10.08,22.392 -22.392,22.392 -12.384,0 -22.392,-10.08 -22.392,-22.392 z"
           transform="matrix(0.98,0,0,0.98,-110.76,435.866)"
           id="path7" /><path
           style="font-style:normal;font-weight:400;font-size:72px;line-height:1;font-family:'Brandmark Stencil 1';font-variant-ligatures:normal;text-align:center;text-anchor:middle"
           d="m 604.729,-8.928 c -4.248,4.176 -9.864,6.552 -15.84,6.552 -12.384,0 -22.392,-10.08 -22.392,-22.392 0,-12.384 10.008,-22.392 22.392,-22.392 5.976,0 11.592,2.304 15.84,6.552 0.432,0.432 1.224,0.432 1.728,0 0.432,-0.504 0.432,-1.296 0,-1.728 -4.752,-4.68 -10.944,-7.272 -17.568,-7.272 -13.68,0 -24.84,11.088 -24.84,24.84 0,13.68 11.16,24.768 24.84,24.768 6.624,0 12.816,-2.52 17.568,-7.272 0.432,-0.432 0.432,-1.224 0,-1.656 -0.504,-0.504 -1.296,-0.504 -1.728,0 z"
           transform="matrix(0.98,0,0,0.98,-106.84,435.866)"
           id="path8" /><path
           style="font-style:normal;font-weight:400;font-size:72px;line-height:1;font-family:'Brandmark Stencil 1';font-variant-ligatures:normal;text-align:center;text-anchor:middle"
           d="m 625.744,-49.608 c -0.648,0 -1.224,0.504 -1.224,1.224 v 47.232 c 0,0.648 0.576,1.152 1.224,1.152 0.648,0 1.224,-0.504 1.224,-1.152 v -47.232 c 0,-0.72 -0.576,-1.224 -1.224,-1.224 z m 4.968,23.976 c 0,0.72 0.576,1.224 1.224,1.224 h 23.904 c 0.648,0 1.152,-0.504 1.152,-1.224 0,-0.648 -0.504,-1.224 -1.152,-1.224 h -23.904 c -0.648,0 -1.224,0.576 -1.224,1.224 z m 30.096,24.48 c 0,0.648 0.504,1.152 1.224,1.152 0.648,0 1.224,-0.504 1.224,-1.152 v -47.232 c 0,-0.72 -0.576,-1.224 -1.224,-1.224 -0.72,0 -1.224,0.504 -1.224,1.224 z"
           transform="matrix(0.98,0,0,0.98,-102.92,435.866)"
           id="path9" /><path
           style="font-style:normal;font-weight:400;font-size:72px;line-height:1;font-family:'Brandmark Stencil 1';font-variant-ligatures:normal;text-align:center;text-anchor:middle"
           d="m 757.012,-1.656 -20.016,-47.736 c -0.072,-0.216 -0.144,-0.288 -0.216,-0.432 0,-0.072 -0.072,-0.072 -0.072,-0.072 -0.36,-0.504 -1.008,-0.648 -1.512,-0.36 -0.288,0.144 -0.432,0.36 -0.576,0.576 -0.216,0.576 -20.16,48.024 -20.16,48.024 a 1.286,1.286 0 0 0 0.648,1.584 c 0.648,0.288 1.368,0 1.584,-0.648 l 19.08,-45.36 19.008,45.36 c 0.216,0.504 0.648,0.72 1.152,0.72 0.144,0 0.288,0 0.432,-0.072 0.648,-0.288 0.936,-0.936 0.648,-1.584 z m -30.816,-12.96 c 0,0.72 0.576,1.224 1.224,1.224 h 16.632 c 0.72,0 1.224,-0.504 1.224,-1.224 0,-0.648 -0.504,-1.152 -1.224,-1.152 H 727.42 c -0.648,0 -1.224,0.504 -1.224,1.152 z"
           transform="matrix(0.98,0,0,0.98,-99,435.866)"
           id="path10" /><path
           style="font-style:normal;font-weight:400;font-size:72px;line-height:1;font-family:'Brandmark Stencil 1';font-variant-ligatures:normal;text-align:center;text-anchor:middle"
           d="m 774.947,-49.608 c -0.648,0 -1.224,0.504 -1.224,1.224 v 47.232 c 0,0.648 0.576,1.152 1.224,1.152 0.648,0 1.224,-0.504 1.224,-1.152 v -47.232 c 0,-0.72 -0.576,-1.224 -1.224,-1.224 z m 4.968,26.856 c 0,0.648 0.576,1.152 1.224,1.152 h 10.008 c 7.704,0.072 14.04,-6.264 14.04,-13.968 0,-7.776 -6.336,-14.04 -14.04,-14.04 h -10.008 c -0.648,0 -1.224,0.504 -1.224,1.224 0,0.648 0.576,1.224 1.224,1.224 h 10.008 c 6.408,-0.072 11.592,5.184 11.592,11.592 0,6.336 -5.184,11.592 -11.592,11.592 h -10.008 c -0.648,0 -1.224,0.504 -1.224,1.224 z"
           transform="matrix(0.98,0,0,0.98,-95.08,435.866)"
           id="path11" /><path
           style="font-style:normal;font-weight:400;font-size:72px;line-height:1;font-family:'Brandmark Stencil 1';font-variant-ligatures:normal;text-align:center;text-anchor:middle"
           d="m 836.625,-27.144 c -7.2,-2.448 -13.392,-4.608 -13.392,-10.584 0,-8.568 9.072,-9.432 12.96,-9.432 8.568,0 13.392,5.112 13.464,5.184 0.432,0.504 1.152,0.504 1.656,0.072 0.504,-0.432 0.576,-1.224 0.144,-1.728 -0.216,-0.216 -5.544,-5.976 -15.264,-5.976 -9.648,0 -15.336,4.392 -15.336,11.88 0,7.704 7.56,10.368 14.976,12.888 7.632,2.664 14.904,5.184 14.904,12.888 0,6.192 -7.2,9.576 -14.04,9.576 -9,0 -15.336,-6.12 -15.408,-6.192 -0.504,-0.432 -1.296,-0.432 -1.728,0 -0.504,0.504 -0.504,1.296 0,1.728 0.288,0.288 7.056,6.84 17.136,6.84 10.8,0 16.488,-6.048 16.488,-11.952 0,-9.432 -8.784,-12.456 -16.56,-15.192 z"
           transform="matrix(0.98,0,0,0.98,-91.16,435.866)"
           id="path12" /></g></g></g></svg>
